<?xml version="1.0" encoding="UTF-8" standalone="no"?>
<svg
   xmlns:dc="http://purl.org/dc/elements/1.1/"
   xmlns:cc="http://creativecommons.org/ns#"
   xmlns:rdf="http://www.w3.org/1999/02/22-rdf-syntax-ns#"
   xmlns:svg="http://www.w3.org/2000/svg"
   xmlns="http://www.w3.org/2000/svg"
   xmlns:sodipodi="http://sodipodi.sourceforge.net/DTD/sodipodi-0.dtd"
   xmlns:inkscape="http://www.inkscape.org/namespaces/inkscape"
   version="1.1"
   id="svg2"
   xml:space="preserve"
   width="60.946667"
   height="82.639999"
   viewBox="0 0 60.946667 82.639999"
   sodipodi:docname="ulogo.svg"
   inkscape:version="1.0.2 (e86c870879, 2021-01-15)"><metadata
     id="metadata8"><rdf:RDF><cc:Work
         rdf:about=""><dc:format>image/svg+xml</dc:format><dc:type
           rdf:resource="http://purl.org/dc/dcmitype/StillImage" /><dc:title></dc:title></cc:Work></rdf:RDF></metadata><defs
     id="defs6" /><sodipodi:namedview
     pagecolor="#ffffff"
     bordercolor="#666666"
     borderopacity="1"
     objecttolerance="10"
     gridtolerance="10"
     guidetolerance="10"
     inkscape:pageopacity="0"
     inkscape:pageshadow="2"
     inkscape:window-width="2560"
     inkscape:window-height="1527"
     id="namedview4"
     showgrid="false"
     inkscape:zoom="10.575798"
     inkscape:cx="34.144983"
     inkscape:cy="52.94262"
     inkscape:window-x="0"
     inkscape:window-y="0"
     inkscape:window-maximized="1"
     inkscape:current-layer="g12" /><g
     id="g10"
     inkscape:groupmode="layer"
     inkscape:label="ink_ext_XXXXXX"
     transform="matrix(1.3333333,0,0,-1.3333333,0,82.64)"><g
       id="g12"
       transform="scale(0.1)"
       style="fill:#008000"><path
         d="M 457.117,585.629 V 215.34 C 457.117,98.5352 382.684,0 223.305,0 67.1523,0 0,98.5352 0,205.008 l 0.15625,381.558 55.82425,-0.097 v -377.5 c 0,-123.9612 99.6135,-160.0002 169.9995,-160.0002 72.012,0 176.52,45.2031 176.52,169.1602 v 367.5 h 54.617"
         style="fill:#008000;fill-opacity:1;fill-rule:nonzero;stroke:none"
         id="path14" /><path
         d="m 342.309,160.941 h -227.5 v 13.75 h 227.5 v -13.75"
         style="fill:#008000;fill-opacity:1;fill-rule:nonzero;stroke:none"
         id="path16" /><path
         d="m 342.309,188.73 h -227.5 v 13.75 h 227.5 v -13.75"
         style="fill:#008000;fill-opacity:1;fill-rule:nonzero;stroke:none"
         id="path18" /><path
         d="m 342.309,216.523 h -227.5 v 13.75 h 227.5 v -13.75"
         style="fill:#008000;fill-opacity:1;fill-rule:nonzero;stroke:none"
         id="path20" /><path
         d="m 342.309,244.313 h -227.5 v 13.75 h 227.5 v -13.75"
         style="fill:#008000;fill-opacity:1;fill-rule:nonzero;stroke:none"
         id="path22" /><path
         d="m 342.309,272.105 h -227.5 v 13.75 h 227.5 v -13.75"
         style="fill:#008000;fill-opacity:1;fill-rule:nonzero;stroke:none"
         id="path24" /><path
         d="m 342.309,299.895 h -227.5 v 13.75 h 227.5 v -13.75"
         style="fill:#008000;fill-opacity:1;fill-rule:nonzero;stroke:none"
         id="path26" /><path
         d="m 342.309,327.688 h -227.5 v 13.75 h 227.5 v -13.75"
         style="fill:#008000;fill-opacity:1;fill-rule:nonzero;stroke:none"
         id="path28" /><path
         d="m 342.309,355.473 h -227.5 v 13.75 h 227.5 v -13.75"
         style="fill:#008000;fill-opacity:1;fill-rule:nonzero;stroke:none"
         id="path30" /><path
         d="m 342.309,384.301 h -227.5 v 13.75 h 227.5 v -13.75"
         style="fill:#008000;fill-opacity:1;fill-rule:nonzero;stroke:none"
         id="path32" /><path
         d="m 342.309,412.09 h -227.5 v 13.75 h 227.5 v -13.75"
         style="fill:#008000;fill-opacity:1;fill-rule:nonzero;stroke:none"
         id="path34" /><path
         d="m 342.309,439.883 h -227.5 v 13.75 h 227.5 v -13.75"
         style="fill:#008000;fill-opacity:1;fill-rule:nonzero;stroke:none"
         id="path36" /><path
         d="m 342.309,467.672 h -227.5 v 13.75 h 227.5 v -13.75"
         style="fill:#008000;fill-opacity:1;fill-rule:nonzero;stroke:none"
         id="path38" /><path
         d="m 342.309,495.465 h -227.5 v 13.75 h 227.5 v -13.75"
         style="fill:#008000;fill-opacity:1;fill-rule:nonzero;stroke:none"
         id="path40" /><path
         d="m 342.309,523.254 h -227.5 v 13.75 h 227.5 v -13.75"
         style="fill:#008000;fill-opacity:1;fill-rule:nonzero;stroke:none"
         id="path42" /><path
         d="m 341.684,584.691 h -226.25 v -33.75 h 226.25 v 33.75"
         style="fill:#008000;fill-opacity:1;fill-rule:nonzero;stroke:none"
         id="path44" /><path
         d="m 166.004,592.648 c 0,-12.226 -9.754,-22.14 -21.781,-22.14 -12.028,0 -21.782,9.914 -21.782,22.14 0,12.235 9.754,22.141 21.782,22.141 12.027,0 21.781,-9.906 21.781,-22.141"
         style="fill:#008000;fill-opacity:1;fill-rule:nonzero;stroke:none"
         id="path46" /><path
         d="m 166.004,592.648 c 0,-12.226 -9.754,-22.14 -21.781,-22.14 -12.028,0 -21.782,9.914 -21.782,22.14 0,12.235 9.754,22.141 21.782,22.141 12.027,0 21.781,-9.906 21.781,-22.141 z"
         style="fill:#ffffff;stroke:#ffffff;stroke-width:10;stroke-linecap:butt;stroke-linejoin:miter;stroke-miterlimit:4;stroke-dasharray:none;stroke-opacity:1"
         id="path48" /><path
         d="m 222.227,592.609 c 0,-12.226 -9.747,-22.14 -21.778,-22.14 -12.027,0 -21.781,9.914 -21.781,22.14 0,12.235 9.754,22.141 21.781,22.141 12.031,0 21.778,-9.906 21.778,-22.141"
         style="fill:#008000;fill-opacity:1;fill-rule:nonzero;stroke:none"
         id="path50" /><path
         d="m 222.227,592.609 c 0,-12.226 -9.747,-22.14 -21.778,-22.14 -12.027,0 -21.781,9.914 -21.781,22.14 0,12.235 9.754,22.141 21.781,22.141 12.031,0 21.778,-9.906 21.778,-22.141 z"
         style="fill:#ffffff;stroke:#ffffff;stroke-width:10;stroke-linecap:butt;stroke-linejoin:miter;stroke-miterlimit:4;stroke-dasharray:none;stroke-opacity:1"
         id="path52" /><path
         d="m 334.676,592.648 c 0,-12.226 -9.754,-22.14 -21.781,-22.14 -12.028,0 -21.782,9.914 -21.782,22.14 0,12.235 9.754,22.141 21.782,22.141 12.027,0 21.781,-9.906 21.781,-22.141"
         style="fill:#008000;fill-opacity:1;fill-rule:nonzero;stroke:none"
         id="path54" /><path
         d="m 334.676,592.648 c 0,-12.226 -9.754,-22.14 -21.781,-22.14 -12.028,0 -21.782,9.914 -21.782,22.14 0,12.235 9.754,22.141 21.782,22.141 12.027,0 21.781,-9.906 21.781,-22.141 z"
         style="fill:#ffffff;stroke:#ffffff;stroke-width:10;stroke-linecap:butt;stroke-linejoin:miter;stroke-miterlimit:4;stroke-dasharray:none;stroke-opacity:1"
         id="path56" /><path
         d="m 278.453,592.609 c 0,-12.226 -9.762,-22.144 -21.789,-22.144 -12.027,0 -21.773,9.918 -21.773,22.144 0,12.235 9.746,22.141 21.773,22.141 12.027,0 21.789,-9.906 21.789,-22.141"
         style="fill:#008000;fill-opacity:1;fill-rule:nonzero;stroke:none"
         id="path58" /><path
         d="m 278.453,592.609 c 0,-12.226 -9.762,-22.144 -21.789,-22.144 -12.027,0 -21.773,9.918 -21.773,22.144 0,12.235 9.746,22.141 21.773,22.141 12.027,0 21.789,-9.906 21.789,-22.141 z"
         style="fill:#ffffff;stroke:#ffffff;stroke-width:10;stroke-linecap:butt;stroke-linejoin:miter;stroke-miterlimit:4;stroke-dasharray:none;stroke-opacity:1"
         id="path60" /></g></g></svg>
